<svg width="424" height="1086" viewBox="0 0 424 1086" xmlns="http://www.w3.org/2000/svg">
    <g fill="none" fill-rule="evenodd">
        <path d="M0 0h424v1086H0z"/>
        <path d="M212.788 1076.256a2 2 0 0 1-1.757 2.216 181.777 181.777 0 0 1-16.137 1.144 2 2 0 1 1-.104-3.999c5.252-.137 10.52-.51 15.782-1.118a2 2 0 0 1 2.216 1.757zm-49.516-2.695a169.499 169.499 0 0 0 15.721 1.754 2 2 0 1 1-.258 3.992c-5.419-.351-10.79-.95-16.092-1.795a2 2 0 0 1 .63-3.95zm80.732-4.073a2 2 0 0 1-1.346 2.488 186.538 186.538 0 0 1-15.686 3.94 2 2 0 1 1-.805-3.918 182.537 182.537 0 0 0 15.35-3.856 2 2 0 0 1 2.487 1.346zm-111.263-3.896a156.688 156.688 0 0 0 15.073 4.74 2 2 0 1 1-1.008 3.87 160.684 160.684 0 0 1-15.457-4.86 2 2 0 0 1 1.392-3.75zm140.87-8.128a2 2 0 0 1-.903 2.68 190.318 190.318 0 0 1-14.78 6.56 2 2 0 1 1-1.466-3.721 186.32 186.32 0 0 0 14.47-6.423 2 2 0 0 1 2.68.904zm-169.07-5.932c4.38 2.83 8.956 5.431 13.707 7.794a2 2 0 1 1-1.781 3.581 144.922 144.922 0 0 1-14.097-8.015 2 2 0 1 1 2.17-3.36zm196.284-10.914a2 2 0 0 1-.447 2.792 196.071 196.071 0 0 1-13.47 8.934 2 2 0 1 1-2.071-3.422 192.075 192.075 0 0 0 13.195-8.752 2 2 0 0 1 2.793.447zm-220.507-9.204a126.426 126.426 0 0 0 11.476 10.778 2 2 0 1 1-2.553 3.08 130.426 130.426 0 0 1-11.84-11.12 2 2 0 0 1 2.917-2.738zm244.61-11.802a2 2 0 0 1 0 2.828 206.276 206.276 0 0 1-11.858 10.974 2 2 0 0 1-2.6-3.04 202.273 202.273 0 0 0 11.63-10.762 2 2 0 0 1 2.828 0zm-262.974-13.723a118.76 118.76 0 0 0 8.332 13.354 2 2 0 0 1-3.247 2.337 122.76 122.76 0 0 1-8.612-13.803 2 2 0 0 1 3.527-1.888zm283.612-10.742a2 2 0 0 1 .419 2.798 222.701 222.701 0 0 1-10.064 12.626 2 2 0 1 1-3.035-2.606 218.703 218.703 0 0 0 9.883-12.4 2 2 0 0 1 2.797-.418zm-294.675-18.66a122.711 122.711 0 0 0 4.568 15.057 2 2 0 1 1-3.745 1.406 126.711 126.711 0 0 1-4.717-15.548 2 2 0 1 1 3.894-.916zm311.69-8.483a2 2 0 0 1 .79 2.716 246.374 246.374 0 0 1-8.218 13.88 2 2 0 1 1-3.373-2.15 242.374 242.374 0 0 0 8.085-13.655 2 2 0 0 1 2.716-.79zM45.403 943.246a2 2 0 0 1 1.996 2.004c-.011 5.362.27 10.619.839 15.763a2 2 0 0 1-3.976.44c-.585-5.294-.874-10.7-.863-16.21a2 2 0 0 1 2.004-1.997zm332.715-9.137.368 3.537 2.376 22.823a2 2 0 0 1-3.957.563l-.021-.148-1.587-15.23-4.595 10.615a2 2 0 0 1-3.728-1.444l.057-.146 4.596-10.615-12.191 9.264a2 2 0 0 1-2.698-.256l-.105-.126a2 2 0 0 1 .256-2.698l.127-.105 18.27-13.883 2.832-2.15zM49.042 911.472a2 2 0 0 1 1.575 2.35 173.587 173.587 0 0 0-2.37 15.654 2 2 0 1 1-3.978-.414 177.585 177.585 0 0 1 2.423-16.015 2 2 0 0 1 2.35-1.575zm8.971-30.713a2 2 0 0 1 1.198 2.563 220.088 220.088 0 0 0-4.881 15.083 2 2 0 0 1-3.848-1.09 224.086 224.086 0 0 1 4.969-15.358 2 2 0 0 1 2.562-1.198zm12.995-29.209a2 2 0 0 1 .88 2.689 278.849 278.849 0 0 0-6.78 14.354 2 2 0 1 1-3.665-1.603 282.847 282.847 0 0 1 6.877-14.56 2 2 0 0 1 2.688-.88zm16.051-27.694a2 2 0 0 1 .616 2.76 348.604 348.604 0 0 0-8.22 13.608 2 2 0 0 1-3.47-1.988 352.603 352.603 0 0 1 8.314-13.764 2 2 0 0 1 2.76-.616zm18.376-26.225a2 2 0 0 1 .398 2.8 428.098 428.098 0 0 0-9.328 12.905 2 2 0 1 1-3.286-2.281 432.094 432.094 0 0 1 9.416-13.026 2 2 0 0 1 2.8-.398zm20.15-24.839a2 2 0 0 1 .216 2.82 516.214 516.214 0 0 0-10.179 12.241 2 2 0 1 1-3.115-2.509c3.3-4.098 6.72-8.21 10.257-12.335a2 2 0 0 1 2.82-.217zm21.587-23.632a2 2 0 0 1 .063 2.827 612.187 612.187 0 0 0-10.87 11.66 2 2 0 1 1-2.962-2.69 616.187 616.187 0 0 1 10.941-11.735 2 2 0 0 1 2.828-.062zm22.632-22.587a2 2 0 0 1-.042 2.828 1108.008 1108.008 0 0 0-11.377 11.208 2 2 0 0 1-2.827-2.829 1112 1112 0 0 1 11.417-11.249 2 2 0 0 1 2.829.042zM193.2 704.67a2 2 0 0 1-.136 2.825 910.436 910.436 0 0 0-11.724 10.838 2 2 0 0 1-2.74-2.914 914.43 914.43 0 0 1 11.775-10.886 2 2 0 0 1 2.825.137zm182.973-7.458a2 2 0 0 1-.722 2.734c-4.837 2.817-10.22 4.525-16.014 5.008a2 2 0 1 1-.332-3.986c5.199-.433 10.008-1.959 14.333-4.478a2 2 0 0 1 2.735.722zm-46.48-3.9c4.907 2.748 9.673 4.754 14.27 6.043a2 2 0 0 1-1.079 3.851c-4.911-1.376-9.969-3.505-15.145-6.403a2 2 0 1 1 1.954-3.49zm-112.325-9.61a2 2 0 0 1-.254 2.816 725.627 725.627 0 0 0-12.131 10.362 2 2 0 0 1-2.63-3.013 729.623 729.623 0 0 1 12.198-10.42 2 2 0 0 1 2.817.254zm176.603-12.397a2 2 0 0 1 1.314 2.504c-1.69 5.424-4.206 10.472-7.43 14.85a2 2 0 1 1-3.22-2.372c2.955-4.013 5.27-8.66 6.831-13.668a2 2 0 0 1 2.505-1.314zm-89.097 2.769.505.492c3.814 3.713 7.584 7.032 11.303 9.961a2 2 0 1 1-2.475 3.143c-3.536-2.786-7.11-5.907-10.716-9.366l-.902-.872-.509-.496a2 2 0 1 1 2.794-2.862zm-62.402-10.128a2 2 0 0 1-.404 2.8 555.1 555.1 0 0 0-12.627 9.733 2 2 0 0 1-2.486-3.133 559.095 559.095 0 0 1 12.718-9.804 2 2 0 0 1 2.8.404zm40.215-12.791a612.54 612.54 0 0 0 10.934 11.608 2 2 0 0 1-2.875 2.781 616.533 616.533 0 0 1-11.005-11.684 2 2 0 0 1 2.946-2.705zm112.252-10.094c1.84 5.132 2.782 10.692 2.806 16.385a2 2 0 1 1-4 .018c-.022-5.248-.887-10.358-2.571-15.052a2 2 0 1 1 3.765-1.35zm-126.116 4.746a2 2 0 0 1-.608 2.763 400.376 400.376 0 0 0-13.235 8.846 2 2 0 0 1-2.286-3.282 404.37 404.37 0 0 1 13.367-8.935 2 2 0 0 1 2.762.608zm-7.14-18.647a717.386 717.386 0 0 0 10.37 12.125 2 2 0 1 1-3.01 2.634 721.384 721.384 0 0 1-10.427-12.193 2 2 0 0 1 3.068-2.566zm35.012 2.993a2 2 0 0 1-.903 2.68 264.796 264.796 0 0 0-14.002 7.499 2 2 0 1 1-1.99-3.47 268.788 268.788 0 0 1 14.214-7.612 2 2 0 0 1 2.68.903zm75.828-12.97c5.377 2.293 9.984 5.516 13.752 9.542a2 2 0 0 1-2.92 2.733c-3.388-3.62-7.535-6.52-12.401-8.596a2 2 0 0 1 1.57-3.68zm-46.048 1.496a2 2 0 0 1-1.369 2.475c-4.773 1.372-9.748 3.099-14.921 5.186a2 2 0 1 1-1.497-3.71c5.299-2.137 10.404-3.91 15.312-5.32a2 2 0 0 1 2.475 1.369zm-84.757-16.425a801.48 801.48 0 0 0 9.857 12.556 2 2 0 0 1-3.122 2.501 805.482 805.482 0 0 1-9.906-12.619 2 2 0 0 1 3.17-2.438zm114.565 11.083a2 2 0 1 1-.323 3.987c-4.793-.388-9.977-.218-15.54.535a2 2 0 0 1-.536-3.963c5.84-.791 11.31-.97 16.399-.56zM222.746 576.59a861.095 861.095 0 0 0 9.368 12.925 2 2 0 0 1-3.216 2.378 865.098 865.098 0 0 1-9.412-12.985 2 2 0 0 1 3.26-2.318zm-18.04-26.373a894.621 894.621 0 0 0 8.893 13.255 2 2 0 1 1-3.301 2.258 898.62 898.62 0 0 1-8.933-13.315 2 2 0 1 1 3.342-2.198zm-17.077-26.982a902.03 902.03 0 0 0 8.419 13.565 2 2 0 0 1-3.38 2.14 906.04 906.04 0 0 1-8.456-13.626 2 2 0 1 1 3.417-2.08zm-16.103-27.565a884.92 884.92 0 0 0 7.927 13.853 2 2 0 1 1-3.453 2.018 888.917 888.917 0 0 1-7.964-13.916 2 2 0 1 1 3.49-1.955zm-15.096-28.15a845.876 845.876 0 0 0 7.411 14.135 2 2 0 0 1-3.525 1.89 849.87 849.87 0 0 1-7.446-14.201 2 2 0 0 1 3.56-1.824zm-13.991-28.683a788.434 788.434 0 0 0 6.852 14.409 2 2 0 0 1-3.595 1.754 792.443 792.443 0 0 1-6.887-14.482 2 2 0 0 1 3.63-1.681zm-12.788-29.234a716.567 716.567 0 0 0 6.235 14.686 2 2 0 1 1-3.664 1.604 720.559 720.559 0 0 1-6.27-14.769 2 2 0 1 1 3.699-1.521zm-11.433-29.791a634.514 634.514 0 0 0 5.536 14.966 2 2 0 0 1-3.734 1.434 638.509 638.509 0 0 1-5.57-15.06 2 2 0 1 1 3.768-1.34zm-9.843-30.29a546.79 546.79 0 0 0 4.717 15.238A2 2 0 0 1 109.29 366a550.79 550.79 0 0 1-4.752-15.349 2 2 0 1 1 3.838-1.126zm-7.991-30.89a457.412 457.412 0 0 0 3.73 15.484 2 2 0 1 1-3.871 1.003 461.409 461.409 0 0 1-3.764-15.618 2 2 0 0 1 3.905-.869zm-5.687-31.338a370.994 370.994 0 0 0 2.523 15.717 2 2 0 0 1-3.935.717 374.992 374.992 0 0 1-2.55-15.886 2 2 0 0 1 3.962-.548zm-2.794-31.623c.18 5.19.512 10.478.993 15.859a2 2 0 1 1-3.984.356 295.714 295.714 0 0 1-1.007-16.076 2 2 0 1 1 3.998-.139zm-1.027-33.927.149.009a2 2 0 0 1 1.794 2.187 223.35 223.35 0 0 0-.985 15.837 2 2 0 0 1-3.999-.11c.15-5.495.484-10.87 1.003-16.12a2 2 0 0 1 1.89-1.802l.148-.001zm6.273-31.37a2 2 0 0 1 1.387 2.465 169.966 169.966 0 0 0-3.534 15.411 2 2 0 1 1-3.936-.716 173.963 173.963 0 0 1 3.618-15.774 2 2 0 0 1 2.465-1.387zm12.272-29.515a2 2 0 0 1 .81 2.71 135.119 135.119 0 0 0-6.653 14.29 2 2 0 0 1-3.717-1.478 139.117 139.117 0 0 1 6.85-14.712 2 2 0 0 1 2.71-.81zm17.302-26.783a2 2 0 0 1 .467 2.79 300.392 300.392 0 0 0-8.882 13.181 2 2 0 0 1-3.375-2.147 304.39 304.39 0 0 1 9-13.358 2 2 0 0 1 2.79-.466zm20.222-24.835a2 2 0 0 1 .144 2.825 269.514 269.514 0 0 0-10.294 12.097 2 2 0 0 1-3.12-2.503 273.514 273.514 0 0 1 10.446-12.276 2 2 0 0 1 2.824-.143zm23.063-22.207a2 2 0 0 1-.21 2.82 250.729 250.729 0 0 0-11.689 10.74 2 2 0 1 1-2.797-2.86 254.728 254.728 0 0 1 11.876-10.91 2 2 0 0 1 2.82.21zm25.704-19.078a2 2 0 0 1-.572 2.77 244.31 244.31 0 0 0-12.97 9.145 2 2 0 1 1-2.41-3.192 248.31 248.31 0 0 1 13.182-9.295 2 2 0 0 1 2.77.572zm27.898-15.582a2 2 0 0 1-.92 2.675c-4.779 2.33-9.46 4.8-14.043 7.407a2 2 0 0 1-1.978-3.477 254.334 254.334 0 0 1 14.267-7.525 2 2 0 0 1 2.674.92zm29.66-12.022a2 2 0 0 1-1.236 2.544 268.721 268.721 0 0 0-14.846 5.63 2 2 0 0 1-1.53-3.697 272.721 272.721 0 0 1 15.068-5.713 2 2 0 0 1 2.544 1.236zm30.829-8.55a2 2 0 0 1-1.506 2.393 299.173 299.173 0 0 0-15.401 3.933 2 2 0 1 1-1.093-3.848 303.173 303.173 0 0 1 15.606-3.985 2 2 0 0 1 2.394 1.507zm31.549-5.362a2 2 0 0 1-1.73 2.237c-5.32.68-10.56 1.474-15.721 2.38a2 2 0 0 1-.692-3.94 345.304 345.304 0 0 1 15.905-2.408 2 2 0 0 1 2.238 1.73zm31.899-2.528a2 2 0 0 1-1.911 2.085c-5.37.233-10.667.57-15.89 1.008a2 2 0 1 1-.336-3.986 398.589 398.589 0 0 1 16.052-1.018 2 2 0 0 1 2.085 1.911z" fill-opacity=".24" fill="#E0E0FF" fill-rule="nonzero"/>
    </g>
</svg>
