<?xml version="1.0" encoding="UTF-8"?>
<svg width="48px" height="48px" viewBox="0 0 48 48" version="1.1" xmlns="http://www.w3.org/2000/svg" xmlns:xlink="http://www.w3.org/1999/xlink">
    <title>61D267ED-5615-46B0-B5D4-0EF6C92FF251</title>
    <g id="01_desktop" stroke="none" stroke-width="1" fill="none" fill-rule="evenodd">
        <g id="00_home" transform="translate(-1300.000000, -3232.000000)">
            <g id="03_benefits" transform="translate(0.000000, 2916.000000)">
                <g id="list" transform="translate(292.000000, 316.000000)">
                    <g id="community" transform="translate(1008.000000, 0.000000)">
                        <rect id="frame" x="0" y="0" width="48" height="48"></rect>
                        <path d="M23.29125,34.745625 L36.6389062,34.745625 C38.8732812,34.745625 39.9904687,33.9135938 39.9904687,32.2495313 C39.9904687,31.3510938 39.7365625,30.4780469 39.22875,29.6303906 C38.7209375,28.7827344 38.0119531,28.0210156 37.1017969,27.3452344 C36.1916406,26.6694531 35.1291406,26.1342969 33.9142969,25.7397656 C32.6994531,25.3452344 31.385,25.1479688 29.9709375,25.1479688 C28.556875,25.1479688 27.2404687,25.3452344 26.0217187,25.7397656 C24.8029687,26.1342969 23.7385156,26.6694531 22.8283594,27.3452344 C21.9182031,28.0210156 21.2092187,28.7827344 20.7014062,29.6303906 C20.1935937,30.4780469 19.9396875,31.3510938 19.9396875,32.2495313 C19.9396875,33.9135938 21.056875,34.745625 23.29125,34.745625 Z M23.66625,31.7221875 C23.5959375,31.7221875 23.5490625,31.7026563 23.525625,31.6635938 C23.5021875,31.6245313 23.4904687,31.5854688 23.4904687,31.5464063 C23.4904687,31.2573438 23.6369531,30.9214063 23.9299219,30.5385938 C24.2228906,30.1557813 24.6486719,29.7827344 25.2072656,29.4194531 C25.7658594,29.0561719 26.4455469,28.7553906 27.2463281,28.5171094 C28.0471094,28.2788281 28.9553125,28.1596875 29.9709375,28.1596875 C30.97875,28.1596875 31.8830469,28.2788281 32.6838281,28.5171094 C33.4846094,28.7553906 34.1642969,29.0561719 34.7228906,29.4194531 C35.2814844,29.7827344 35.7072656,30.1557813 36.0002344,30.5385938 C36.2932031,30.9214063 36.4396875,31.2573438 36.4396875,31.5464063 C36.4396875,31.5854688 36.4299219,31.6245313 36.4103906,31.6635938 C36.3908594,31.7026563 36.3459375,31.7221875 36.275625,31.7221875 L23.66625,31.7221875 Z M29.9709375,24.19875 C30.9240625,24.19875 31.7873437,23.9526563 32.5607812,23.4604688 C33.3342187,22.9682813 33.9494531,22.3042188 34.4064844,21.4682813 C34.8635156,20.6323438 35.0920312,19.7026563 35.0920312,18.6792188 C35.0920312,17.6870313 34.8615625,16.7788281 34.400625,15.9546094 C33.9396875,15.1303906 33.3205469,14.4702344 32.5432031,13.9741406 C31.7658594,13.4780469 30.9084375,13.23 29.9709375,13.23 C29.025625,13.23 28.1642969,13.4780469 27.3869531,13.9741406 C26.6096094,14.4702344 25.9885156,15.1303906 25.5236719,15.9546094 C25.0588281,16.7788281 24.8303125,17.6870313 24.838125,18.6792188 C24.8459375,19.7104688 25.0764062,20.6421094 25.5295312,21.4741406 C25.9826562,22.3061719 26.5959375,22.9682813 27.369375,23.4604688 C28.1428125,23.9526563 29.01,24.19875 29.9709375,24.19875 Z M29.9709375,21.1870313 C29.588125,21.1870313 29.2365625,21.0776563 28.91625,20.8589063 C28.5959375,20.6401563 28.3400781,20.3413281 28.1486719,19.9624219 C27.9572656,19.5835156 27.8615625,19.151875 27.8615625,18.6675 C27.8615625,18.2221875 27.9592187,17.8159375 28.1545312,17.44875 C28.3498437,17.0815625 28.6076562,16.7905469 28.9279687,16.5757031 C29.2482812,16.3608594 29.5959375,16.2534375 29.9709375,16.2534375 C30.3459375,16.2534375 30.6916406,16.3608594 31.0080469,16.5757031 C31.3244531,16.7905469 31.5803125,17.0815625 31.775625,17.44875 C31.9709375,17.8159375 32.0685937,18.2260938 32.0685937,18.6792188 C32.0685937,19.1557813 31.9748437,19.5835156 31.7873437,19.9624219 C31.5998437,20.3413281 31.3459375,20.6401563 31.025625,20.8589063 C30.7053125,21.0776563 30.35375,21.1870313 29.9709375,21.1870313 Z M10.963125,34.7573438 L19.1896875,34.7573438 C18.72875,34.4604688 18.3947656,34.0171094 18.1877344,33.4272656 C17.9807031,32.8374219 17.900625,32.2885938 17.9475,31.7807813 L11.5490625,31.7807813 C11.47875,31.7807813 11.431875,31.7632031 11.4084375,31.7280469 C11.385,31.6928906 11.3732812,31.6557813 11.3732812,31.6167188 C11.3732812,31.1948438 11.51,30.776875 11.7834375,30.3628125 C12.056875,29.94875 12.4396875,29.5717969 12.931875,29.2319531 C13.4240625,28.8921094 13.9982812,28.6186719 14.6545312,28.4116406 C15.3107812,28.2046094 16.0217187,28.1010938 16.7873437,28.1010938 C16.9826562,28.1010938 17.22875,28.120625 17.525625,28.1596875 C17.8225,28.19875 18.1115625,28.245625 18.3928125,28.3003125 C18.6740625,28.355 18.8967187,28.4057813 19.0607812,28.4526563 C19.2873437,27.9839063 19.5803125,27.5542188 19.9396875,27.1635938 C20.2990625,26.7729688 20.744375,26.4253125 21.275625,26.120625 C20.6271875,25.839375 19.8791406,25.6089063 19.0314844,25.4292188 C18.1838281,25.2495313 17.4357812,25.1596875 16.7873437,25.1596875 C15.5764062,25.1596875 14.4396875,25.3452344 13.3771875,25.7163281 C12.3146875,26.0874219 11.3810937,26.5991406 10.5764062,27.2514844 C9.77171875,27.9038281 9.1428125,28.6460156 8.6896875,29.4780469 C8.2365625,30.3100781 8.01,31.1870313 8.01,32.1089063 C8.01,32.9526563 8.25609375,33.605 8.74828125,34.0659375 C9.24046875,34.526875 9.97875,34.7573438 10.963125,34.7573438 Z M16.7873437,24.4448438 C17.6232812,24.4448438 18.3830469,24.2280469 19.0666406,23.7944531 C19.7502344,23.3608594 20.2951562,22.7749219 20.7014062,22.0366406 C21.1076562,21.2983594 21.3107812,20.4760938 21.3107812,19.5698438 C21.3107812,18.6948438 21.1057031,17.8940625 20.6955469,17.1675 C20.2853906,16.4409375 19.7365625,15.8589063 19.0490625,15.4214063 C18.3615625,14.9839063 17.6076562,14.7651563 16.7873437,14.7651563 C15.9592187,14.7651563 15.2033594,14.9858594 14.5197656,15.4272656 C13.8361719,15.8686719 13.2892969,16.4526563 12.8791406,17.1792188 C12.4689844,17.9057813 12.2678125,18.7026563 12.275625,19.5698438 C12.275625,20.4839063 12.4767969,21.308125 12.8791406,22.0425 C13.2814844,22.776875 13.8244531,23.3608594 14.5080469,23.7944531 C15.1916406,24.2280469 15.9514062,24.4448438 16.7873437,24.4448438 Z M16.7873437,21.48 C16.5060937,21.48 16.2482812,21.3979688 16.0139062,21.2339063 C15.7795312,21.0698438 15.5920312,20.8432813 15.4514062,20.5542188 C15.3107812,20.2651563 15.2404687,19.9370313 15.2404687,19.5698438 C15.2326562,19.2339063 15.3010156,18.9272656 15.4455469,18.6499219 C15.5900781,18.3725781 15.7814844,18.1499219 16.0197656,17.9819531 C16.2580469,17.8139844 16.5139062,17.73 16.7873437,17.73 C17.0607812,17.73 17.3146875,17.8139844 17.5490625,17.9819531 C17.7834375,18.1499219 17.9748437,18.3725781 18.1232812,18.6499219 C18.2717187,18.9272656 18.3459375,19.2339063 18.3459375,19.5698438 C18.3459375,19.9370313 18.275625,20.2651563 18.135,20.5542188 C17.994375,20.8432813 17.806875,21.0698438 17.5725,21.2339063 C17.338125,21.3979688 17.0764062,21.48 16.7873437,21.48 Z" id="shape" fill="#96B584" fill-rule="nonzero"></path>
                    </g>
                </g>
            </g>
        </g>
    </g>
</svg>