<?xml version="1.0" encoding="UTF-8"?>
<svg width="24px" height="24px" viewBox="0 0 24 24" version="1.1" xmlns="http://www.w3.org/2000/svg" xmlns:xlink="http://www.w3.org/1999/xlink">
    <title>3FA7361F-929C-4867-9AD2-7AB01FF151AE</title>
    <g id="01_desktop" stroke="none" stroke-width="1" fill="none" fill-rule="evenodd">
        <g id="00_home" transform="translate(-1232.000000, -36.000000)">
            <g transform="translate(0.000000, -0.000000)" id="header">
                <g transform="translate(180.000000, 0.000000)">
                    <g id="list" transform="translate(896.000000, 24.000000)">
                        <g id="button" transform="translate(144.000000, 0.000000)">
                            <g id="discord" transform="translate(12.000000, 12.000000)">
                                <rect id="frame" x="0" y="0" width="24" height="24"></rect>
                                <path d="M18.9308446,5.64367756 C17.6561123,5.05877617 16.2891546,4.6278466 14.8599152,4.38103534 C14.833887,4.37627196 14.807887,4.3881759 14.7944785,4.41198435 C14.6186757,4.7246635 14.4239433,5.13257899 14.2875771,5.4531987 C12.7503377,5.22305786 11.2209857,5.22305786 9.71526739,5.4531987 C9.57887303,5.12545222 9.37707022,4.7246635 9.20047867,4.41198435 C9.18707022,4.38897027 9.16107022,4.37706633 9.13504205,4.38103534 C7.70659138,4.62705787 6.33963367,5.05798744 5.06411257,5.64367756 C5.05307032,5.64843813 5.04360553,5.65638179 5.03732384,5.66669165 C2.44449292,9.54032536 1.73420814,13.3187478 2.08265011,17.0503252 C2.08422673,17.0685787 2.0944749,17.0860435 2.10866504,17.0971421 C3.81934077,18.3534237 5.47642242,19.1160998 7.10273224,19.6216209 C7.12876041,19.6295646 7.15633787,19.6200434 7.17290125,19.5986068 C7.55760547,19.0732547 7.90053504,18.5193111 8.1945632,17.9367759 C8.21191531,17.9026632 8.19535193,17.8621843 8.15988715,17.8486914 C7.6159435,17.6423533 7.09799985,17.3907759 6.59977451,17.1050857 C6.56036606,17.0820717 6.55721113,17.0257055 6.59346465,16.9987195 C6.69830972,16.9201562 6.80318295,16.8384097 6.90329563,16.7558745 C6.9214083,16.7408041 6.94664774,16.737621 6.96794351,16.7471421 C10.2410702,18.2415364 13.7846194,18.2415364 17.0191264,16.7471421 C17.0404221,16.7368322 17.0656616,16.7400153 17.084563,16.7550857 C17.1847038,16.837621 17.2895489,16.9201562 17.3951827,16.9987195 C17.4314362,17.0257055 17.42907,17.0820717 17.3896616,17.1050857 C16.8914362,17.3963252 16.3734926,17.6423533 15.8287602,17.8479026 C15.7932954,17.8613956 15.7775208,17.9026632 15.7948729,17.9367759 C16.0952109,18.5184942 16.4381405,19.0724378 16.8157461,19.5978181 C16.8315207,19.6200434 16.8598869,19.6295646 16.8859151,19.6216209 C18.5201123,19.1160998 20.1771826,18.3534237 21.8878586,17.0971421 C21.9028446,17.0860435 21.9123094,17.0693674 21.9138868,17.0511139 C22.3309009,12.7370013 21.215408,8.98956481 18.9568446,5.66748038 C18.9513235,5.65638179 18.9418869,5.64843813 18.9308446,5.64367756 Z M8.68335192,14.7781844 C7.69791533,14.7781844 6.88594351,13.8734802 6.88594351,12.7624098 C6.88594351,11.6513394 7.68216885,10.7466352 8.68335192,10.7466352 C9.69239415,10.7466352 10.4965068,11.6592831 10.4807322,12.7624098 C10.4807322,13.8734802 9.68450683,14.7781844 8.68335192,14.7781844 Z M15.3289574,14.7781844 C14.343549,14.7781844 13.5315772,13.8734802 13.5315772,12.7624098 C13.5315772,11.6513394 14.3277743,10.7466352 15.3289574,10.7466352 C16.3380278,10.7466352 17.1421123,11.6592831 17.1263658,12.7624098 C17.1263658,13.8734802 16.3380278,14.7781844 15.3289574,14.7781844 Z" id="shape" fill-opacity="0.6" fill="#E0E0FF" fill-rule="nonzero"></path>
                            </g>
                        </g>
                    </g>
                </g>
            </g>
        </g>
    </g>
</svg>