<svg width="48" height="48" viewBox="0 0 48 48" xmlns="http://www.w3.org/2000/svg">
    <g fill="none" fill-rule="evenodd">
        <path d="M0 0h48v48H0z"/>
        <path d="m19.566 31.975 3.62-1.582c.298-.125.552-.293.763-.504l11.027-11.027c.602-.602.906-1.258.914-1.97.008-.71-.281-1.355-.867-1.933l-2.696-2.683c-.578-.579-1.222-.864-1.933-.856-.711.008-1.36.309-1.945.902L17.409 23.35a1.749 1.749 0 0 0-.298.357 3.003 3.003 0 0 0-.205.405l-1.582 3.62c-.18.407-.237.803-.17 1.19.066.387.244.725.533 1.014l1.676 1.687c.289.282.627.455 1.013.522.387.066.784.01 1.19-.17zm-.422-2.942a.384.384 0 0 1-.193.036c-.051-.008-.104-.043-.159-.106l-.457-.445a.299.299 0 0 1-.07-.352l1.242-2.824 10.653-10.64c.171-.172.343-.172.515 0l1.922 1.933c.172.164.172.332 0 .504L21.957 27.79l-2.813 1.242zm-4.992 3.68h1.898c.242 0 .412-.023.51-.07.098-.047.205-.113.322-.2l1.43-1.136-2.192-2.18-2.46 2.473c-.211.203-.274.44-.188.709.086.27.313.404.68.404zm3.117-7.652 5.262 5.25 1.863-1.863-5.262-5.239-1.863 1.852zm9.445-9.434 5.25 5.238 1.875-1.828-5.261-5.25-1.864 1.84zM13.203 36.57h21.585c.368 0 .678-.14.932-.416a1.36 1.36 0 0 0 .38-.944c0-.367-.126-.683-.38-.949a1.24 1.24 0 0 0-.932-.398H13.203a1.23 1.23 0 0 0-.932.404 1.349 1.349 0 0 0 .006 1.887c.258.277.566.416.925.416z" fill="#FBBD74" fill-rule="nonzero"/>
    </g>
</svg>
