<svg width="24" height="24" viewBox="0 0 24 24" xmlns="http://www.w3.org/2000/svg">
    <g fill="none" fill-rule="evenodd">
        <path d="M0 0h24v24H0z"/>
        <path d="M23 6a1 1 0 0 1 1 1v10a1 1 0 0 1-1 1H1a1 1 0 0 1-1-1V7a1 1 0 0 1 1-1h22zM4.875 8.625H3v6.75h1.875v-6.75zm3.104 0H5.625v6.75h1.59l.007-4.457.67 4.457h1.132l.635-4.556.005 4.556h1.586v-6.75H8.877l-.42 3.153-.26-1.715-.045-.321c-.06-.417-.117-.79-.173-1.117zm6.948 0H12v6.75h2.927c.662 0 1.198-.533 1.198-1.191V9.816c0-.659-.536-1.191-1.198-1.191zm3.742 0h-1.794v6.663h1.681l.108-.412c.221.302.585.499.997.499h.12c.673 0 1.219-.527 1.219-1.177v-2.706c0-.65-.546-1.177-1.219-1.177h-.12c-.403 0-.76.189-.992.478V8.625zm.28 2.734c.1 0 .24.05.276.13.035.08.052.254.052.518v1.6c0 .301-.015.492-.047.57-.03.08-.179.12-.28.12-.102 0-.248-.042-.282-.12V11.47c.03-.07.182-.111.281-.111zM13.763 9.78c.207 0 .35.02.424.06.076.04.123.103.144.189.021.086.032.281.032.586v2.618c0 .45-.032.723-.095.824-.063.103-.231.152-.505.152z" fill-opacity=".6" fill="#E0E0FF" fill-rule="nonzero"/>
    </g>
</svg>
