<?xml version="1.0" encoding="UTF-8"?>
<svg width="48px" height="48px" viewBox="0 0 48 48" version="1.1" xmlns="http://www.w3.org/2000/svg" xmlns:xlink="http://www.w3.org/1999/xlink">
    <title>02534127-F8B9-44BF-8AE4-A41487E9508C</title>
    <g id="01_desktop" stroke="none" stroke-width="1" fill="none" fill-rule="evenodd">
        <g id="00_home" transform="translate(-1076.000000, -3232.000000)">
            <g id="03_benefits" transform="translate(0.000000, 2916.000000)">
                <g id="list" transform="translate(292.000000, 316.000000)">
                    <g id="income" transform="translate(784.000000, 0.000000)">
                        <rect id="frame" x="0" y="0" width="48" height="48"></rect>
                        <path d="M14.9476563,37.0476563 L33.0296875,37.0476563 C34.4046875,37.0476563 35.475,36.6667969 36.240625,35.9050781 C37.00625,35.1433594 37.3890625,34.0789063 37.3890625,32.7117188 L37.3890625,26.4070313 C37.3890625,25.4851563 37.334375,24.7117188 37.225,24.0867188 C37.115625,23.4617188 36.8929688,22.8914063 36.5570313,22.3757813 L33.6039063,17.8757813 C33.1117188,17.1335938 32.6449219,16.5515625 32.2035156,16.1296875 C31.7621094,15.7078125 31.271875,15.4109375 30.7328125,15.2390625 C30.19375,15.0671875 29.5414063,14.98125 28.7757813,14.98125 L27.75625,14.98125 L27.75625,17.8523438 L28.7992188,17.8523438 C29.1195313,17.8523438 29.3949219,17.934375 29.6253906,18.0984375 C29.8558594,18.2625 30.0570313,18.48125 30.2289063,18.7546875 L33.4632813,23.840625 C33.5414063,23.95 33.5511719,24.0457031 33.4925781,24.1277344 C33.4339844,24.2097656 33.3109375,24.2507813 33.1234375,24.2507813 L26.63125,24.2507813 C26.31875,24.2507813 26.1,24.3132813 25.975,24.4382813 C25.85,24.5632813 25.7875,24.715625 25.7875,24.8953125 L25.7875,24.9304688 C25.7875,25.2039063 25.7191406,25.4792969 25.5824219,25.7566406 C25.4457031,26.0339844 25.2445313,26.2644531 24.9789063,26.4480469 C24.7132813,26.6316406 24.3851563,26.7234375 23.9945313,26.7234375 C23.6039063,26.7234375 23.2738281,26.6316406 23.0042969,26.4480469 C22.7347656,26.2644531 22.5335938,26.0339844 22.4007813,25.7566406 C22.2679688,25.4792969 22.2015625,25.2039063 22.2015625,24.9304688 L22.2015625,24.8953125 C22.2015625,24.715625 22.1371094,24.5632813 22.0082031,24.4382813 C21.8792969,24.3132813 21.6585938,24.2507813 21.3460938,24.2507813 L14.865625,24.2507813 C14.678125,24.2507813 14.5570313,24.2097656 14.5023438,24.1277344 C14.4476563,24.0457031 14.459375,23.95 14.5375,23.840625 L17.771875,18.7546875 C17.94375,18.48125 18.1449219,18.2625 18.3753906,18.0984375 C18.6058594,17.934375 18.88125,17.8523438 19.2015625,17.8523438 L20.2210938,17.8523438 L20.2210938,14.98125 L19.225,14.98125 C18.459375,14.98125 17.8089844,15.0652344 17.2738281,15.2332031 C16.7386719,15.4011719 16.2503906,15.6941406 15.8089844,16.1121094 C15.3675781,16.5300781 14.896875,17.1179688 14.396875,17.8757813 L11.4320313,22.3757813 C11.0882813,22.8992188 10.8636719,23.4714844 10.7582031,24.0925781 C10.6527344,24.7136719 10.6,25.4851563 10.6,26.4070313 L10.6,32.7117188 C10.6,34.0789063 10.9828125,35.1433594 11.7484375,35.9050781 C12.5140625,36.6667969 13.5804688,37.0476563 14.9476563,37.0476563 Z M15.3929688,33.121875 C15.0570313,33.121875 14.8050781,33.04375 14.6371094,32.8875 C14.4691406,32.73125 14.3851563,32.4695313 14.3851563,32.1023438 L14.3851563,27.5203125 L19.4359375,27.5203125 C19.6703125,28.059375 20.00625,28.5378906 20.44375,28.9558594 C20.88125,29.3738281 21.3988281,29.7039063 21.9964844,29.9460938 C22.5941406,30.1882813 23.2601563,30.309375 23.9945313,30.309375 C24.7210938,30.309375 25.3851563,30.1882813 25.9867188,29.9460938 C26.5882813,29.7039063 27.1078125,29.3738281 27.5453125,28.9558594 C27.9828125,28.5378906 28.31875,28.059375 28.553125,27.5203125 L33.6039063,27.5203125 L33.6039063,32.1023438 C33.6039063,32.4695313 33.5199219,32.73125 33.3519531,32.8875 C33.1839844,33.04375 32.9320313,33.121875 32.5960938,33.121875 L15.3929688,33.121875 Z M23.9945313,24.2859375 C24.1976563,24.2859375 24.4046875,24.2449219 24.615625,24.1628906 C24.8265625,24.0808594 25.0335938,23.9421875 25.2367188,23.746875 L28.2484375,20.8640625 C28.4984375,20.6296875 28.6234375,20.340625 28.6234375,19.996875 C28.6234375,19.6375 28.4925781,19.3445313 28.2308594,19.1179688 C27.9691406,18.8914063 27.6820313,18.778125 27.3695313,18.778125 C26.9945313,18.778125 26.6703125,18.91875 26.396875,19.2 L25.7289063,19.9265625 L25.365625,20.7585938 L25.6703125,19.0710938 L25.6703125,12.6257813 C25.6703125,12.1804688 25.5101563,11.7898438 25.1898438,11.4539063 C24.8695313,11.1179688 24.4710938,10.95 23.9945313,10.95 C23.5179688,10.95 23.1175781,11.1179688 22.7933594,11.4539063 C22.4691406,11.7898438 22.3070313,12.1804688 22.3070313,12.6257813 L22.3070313,19.0710938 L22.6117188,20.7585938 L22.2601563,19.9265625 L21.5921875,19.2 C21.31875,18.91875 20.9945313,18.778125 20.6195313,18.778125 C20.3070313,18.778125 20.0199219,18.8914063 19.7582031,19.1179688 C19.4964844,19.3445313 19.365625,19.6375 19.365625,19.996875 C19.365625,20.340625 19.490625,20.6296875 19.740625,20.8640625 L22.7523438,23.746875 C22.9554688,23.9421875 23.1625,24.0808594 23.3734375,24.1628906 C23.584375,24.2449219 23.7914063,24.2859375 23.9945313,24.2859375 Z" id="shape" fill="#9F66FF" fill-rule="nonzero"></path>
                    </g>
                </g>
            </g>
        </g>
    </g>
</svg>