<svg width="24" height="24" viewBox="0 0 24 24" xmlns="http://www.w3.org/2000/svg">
    <g fill="none" fill-rule="evenodd">
        <path d="M0 0h24v24H0z"/>
        <path d="M13.028 2c1.8.004 2.18.018 3.095.06 1.064.049 1.791.218 2.427.465a4.902 4.902 0 0 1 1.772 1.153 4.902 4.902 0 0 1 1.153 1.772c.247.636.416 1.363.465 2.427.042.914.056 1.295.06 3.095v2.056c-.004 1.8-.018 2.18-.06 3.095-.049 1.064-.218 1.791-.465 2.427a4.902 4.902 0 0 1-1.153 1.772 4.902 4.902 0 0 1-1.772 1.153c-.636.247-1.363.416-2.427.465-.914.042-1.295.056-3.095.06h-2.056c-1.8-.004-2.18-.018-3.095-.06-1.064-.049-1.791-.218-2.427-.465a4.902 4.902 0 0 1-1.772-1.153 4.902 4.902 0 0 1-1.153-1.772c-.247-.636-.416-1.363-.465-2.427-.042-.914-.056-1.295-.06-3.095v-2.056c.004-1.8.018-2.18.06-3.095.049-1.064.218-1.791.465-2.427a4.902 4.902 0 0 1 1.153-1.772A4.902 4.902 0 0 1 5.45 2.525c.636-.247 1.363-.416 2.427-.465.914-.042 1.295-.056 3.095-.06zm-.472 1.802h-1.112c-1.559.001-2.173.008-2.76.028l-.195.007-.53.023c-.975.045-1.504.207-1.857.344-.466.182-.8.399-1.15.748-.35.35-.566.684-.748 1.15-.137.353-.3.882-.344 1.857l-.023.53-.007.195c-.02.587-.027 1.201-.028 2.76v1.112c.001 1.559.008 2.173.028 2.76l.007.195.023.53c.045.975.207 1.504.344 1.857.182.466.399.8.748 1.15.35.35.684.566 1.15.748.353.137.882.3 1.857.344l.53.023.195.007c.587.02 1.201.027 2.76.028h1.112c1.559-.001 2.173-.008 2.76-.028l.195-.007.53-.023c.975-.045 1.504-.207 1.857-.344.466-.182.8-.399 1.15-.748.35-.35.566-.684.748-1.15.137-.353.3-.882.344-1.857l.023-.53.007-.195c.02-.587.027-1.201.028-2.76v-1.112c-.001-1.559-.008-2.173-.028-2.76l-.007-.195a86.81 86.81 0 0 0-.023-.53c-.045-.975-.207-1.504-.344-1.857a3.098 3.098 0 0 0-.748-1.15 3.098 3.098 0 0 0-1.15-.748c-.353-.137-.882-.3-1.857-.344a86.802 86.802 0 0 0-.53-.023l-.195-.007c-.587-.02-1.201-.027-2.76-.028zM12 6.865a5.135 5.135 0 1 1 0 10.27 5.135 5.135 0 0 1 0-10.27zm0 1.802a3.333 3.333 0 1 0 0 6.666 3.333 3.333 0 0 0 0-6.666zm5.338-3.205a1.2 1.2 0 1 1 0 2.4 1.2 1.2 0 0 1 0-2.4z" fill-opacity=".6" fill="#E0E0FF" fill-rule="nonzero"/>
    </g>
</svg>
