<svg width="48" height="48" viewBox="0 0 48 48" xmlns="http://www.w3.org/2000/svg">
    <g fill="none" fill-rule="evenodd">
        <path d="M0 0h48v48H0z"/>
        <path d="M13.916 34.994h20.157c.992 0 1.793-.302 2.402-.908.61-.605.914-1.404.914-2.396V16.326c0-.992-.305-1.793-.914-2.402-.61-.61-1.41-.914-2.402-.914H13.916c-.992 0-1.793.305-2.402.914-.61.61-.914 1.41-.914 2.402V31.69c0 .992.305 1.79.914 2.396.61.606 1.41.908 2.402.908zm.047-3.199c-.304 0-.457-.152-.457-.457v-.68a.444.444 0 0 1 .457-.457h.856a.45.45 0 0 1 .457.457v.68a.45.45 0 0 1-.457.457h-.856zm0-3.433a.434.434 0 0 1-.328-.135.464.464 0 0 1-.129-.334v-.68a.444.444 0 0 1 .457-.457h.856a.45.45 0 0 1 .457.457v.68a.454.454 0 0 1-.135.334.44.44 0 0 1-.322.135h-.856zm0-3.575a.444.444 0 0 1-.328-.129.444.444 0 0 1-.129-.328v-.68a.444.444 0 0 1 .457-.457h.856a.45.45 0 0 1 .457.458v.68a.45.45 0 0 1-.457.457h-.856zm0-3.562a.444.444 0 0 1-.328-.13.444.444 0 0 1-.129-.327v-.68a.444.444 0 0 1 .457-.457h.856a.45.45 0 0 1 .457.457v.68a.45.45 0 0 1-.457.457h-.856zm0-3.445a.444.444 0 0 1-.328-.13.43.43 0 0 1-.129-.316v-.691c0-.305.153-.457.457-.457h.856a.45.45 0 0 1 .457.457v.691a.42.42 0 0 1-.135.317.45.45 0 0 1-.322.129h-.856zm4.371 14.015a.711.711 0 0 1-.521-.217.711.711 0 0 1-.217-.521v-4.723c0-.21.072-.388.217-.533a.711.711 0 0 1 .521-.217h11.192c.203 0 .377.072.521.217a.725.725 0 0 1 .217.533v4.723a.711.711 0 0 1-.217.521.711.711 0 0 1-.521.217H18.334zm0-9.398a.711.711 0 0 1-.521-.217.711.711 0 0 1-.217-.522v-4.734c0-.203.072-.377.217-.521a.711.711 0 0 1 .521-.217h11.192c.203 0 .377.072.521.217a.711.711 0 0 1 .217.521v4.734a.711.711 0 0 1-.217.522.711.711 0 0 1-.521.217H18.334zm14.707 9.398a.444.444 0 0 1-.328-.129.444.444 0 0 1-.129-.328v-.68a.444.444 0 0 1 .457-.457h.856a.45.45 0 0 1 .457.457v.68c0 .305-.152.457-.457.457h-.856zm0-3.433a.434.434 0 0 1-.328-.135.464.464 0 0 1-.129-.334v-.68a.444.444 0 0 1 .457-.457h.856a.45.45 0 0 1 .457.457v.68a.454.454 0 0 1-.135.334.44.44 0 0 1-.322.135h-.856zm0-3.575a.444.444 0 0 1-.328-.129.444.444 0 0 1-.129-.328v-.68a.444.444 0 0 1 .457-.457h.856a.45.45 0 0 1 .457.458v.68a.45.45 0 0 1-.457.457h-.856zm0-3.562a.444.444 0 0 1-.328-.13.444.444 0 0 1-.129-.327v-.68a.444.444 0 0 1 .457-.457h.856a.45.45 0 0 1 .457.457v.68a.45.45 0 0 1-.457.457h-.856zm0-3.445a.444.444 0 0 1-.328-.13.43.43 0 0 1-.129-.316v-.691a.444.444 0 0 1 .457-.457h.856c.305 0 .457.152.457.457v.691a.42.42 0 0 1-.135.317.45.45 0 0 1-.322.129h-.856z" fill="#FE7A70" fill-rule="nonzero"/>
    </g>
</svg>
