<svg width="24" height="24" viewBox="0 0 24 24" xmlns="http://www.w3.org/2000/svg">
    <g fill="none" fill-rule="evenodd">
        <path d="M0 0h24v24H0z"/>
        <path d="M8.28 20.126c7.544 0 11.672-6.256 11.672-11.672 0-.176 0-.352-.008-.528a8.357 8.357 0 0 0 2.048-2.128 8.314 8.314 0 0 1-2.36.648 4.127 4.127 0 0 0 1.808-2.272 8.16 8.16 0 0 1-2.608.992A4.095 4.095 0 0 0 15.84 3.87a4.107 4.107 0 0 0-4.104 4.104c0 .32.04.632.104.936a11.649 11.649 0 0 1-8.456-4.288 4.113 4.113 0 0 0 1.272 5.48A4.15 4.15 0 0 1 2.8 9.59v.056a4.11 4.11 0 0 0 3.288 4.024 4 4 0 0 1-1.08.144c-.264 0-.52-.024-.768-.072a4.102 4.102 0 0 0 3.832 2.848 8.228 8.228 0 0 1-5.096 1.76c-.328 0-.656-.016-.976-.056a11.669 11.669 0 0 0 6.28 1.832" fill-opacity=".6" fill="#E0E0FF" fill-rule="nonzero"/>
    </g>
</svg>
