<?xml version="1.0" encoding="UTF-8"?>
<svg width="816px" height="172px" viewBox="0 0 816 172" version="1.1" xmlns="http://www.w3.org/2000/svg" xmlns:xlink="http://www.w3.org/1999/xlink">
    <title>8F5626AD-2E27-42B0-9E8B-438411C6D2D4</title>
    <g id="01_desktop" stroke="none" stroke-width="1" fill="none" fill-rule="evenodd">
        <g id="00_home" transform="translate(-558.000000, -1455.000000)">
            <g id="01_description" transform="translate(0.000000, 972.000000)">
                <g id="path_1" transform="translate(558.000000, 483.000000)">
                    <rect id="frame" x="0" y="0" width="816" height="172"></rect>
                    <path d="M5.08658989,169.679084 C9.43640752,166.864175 13.9735904,164.141104 18.6981976,161.509944 C19.6632115,160.972523 20.0098435,159.754558 19.4724219,158.789544 C18.9350003,157.82453 17.7170357,157.477898 16.7520218,158.01532 C11.9510596,160.689002 7.3381693,163.45751 2.91341011,166.320916 C1.98607774,166.921023 1.72080917,168.159258 2.3209162,169.08659 C2.92102322,170.013922 4.15925751,170.279191 5.08658989,169.679084 Z M32.792376,154.20132 C37.4665553,151.944112 42.2991185,149.764714 47.2900781,147.66318 C48.3080828,147.23453 48.7858496,146.061786 48.3572003,145.043781 C47.9285509,144.025776 46.7558061,143.548009 45.7378014,143.976659 C40.6843897,146.10449 35.7894311,148.312027 31.052938,150.599326 C30.058275,151.079659 29.6413278,152.275379 30.1216604,153.270042 C30.6019929,154.264705 31.797713,154.681652 32.792376,154.20132 Z M62.0794279,141.834406 C66.9598676,140.034922 71.9748068,138.301676 77.1242416,136.634702 C78.1751196,136.294512 78.7512461,135.166828 78.4110561,134.11595 C78.0708661,133.065072 76.9431827,132.488946 75.8923047,132.829136 C70.6923988,134.512448 65.6268453,136.263188 60.6956404,138.081389 C59.6592735,138.463512 59.1289036,139.613424 59.5110259,140.649791 C59.8931483,141.686158 61.0430611,142.216528 62.0794279,141.834406 Z M92.3813178,132.001463 C97.3971088,130.573996 102.528496,129.203574 107.775472,127.890218 C108.846984,127.622011 109.498192,126.535954 109.229985,125.464442 C108.961777,124.392929 107.87572,123.741722 106.804208,124.009929 C101.516214,125.333551 96.3436199,126.714978 91.2864164,128.154231 C90.2240328,128.45658 89.6079026,129.562914 89.9102513,130.625298 C90.2126,131.687681 91.3189341,132.303811 92.3813178,132.001463 Z M123.32464,124.239524 C128.432761,123.116278 133.641603,122.042817 138.95116,121.019153 C140.035756,120.810046 140.74548,119.761294 140.536374,118.676698 C140.327268,117.592102 139.278515,116.882377 138.193919,117.091483 C132.850613,118.121654 127.607838,119.202108 122.465588,120.332859 C121.386792,120.57008 120.704561,121.636922 120.941782,122.715718 C121.179002,123.794513 122.245844,124.476744 123.32464,124.239524 Z M154.602922,118.194903 C159.768313,117.324405 165.022367,116.497785 170.365078,115.71505 C171.457981,115.554934 172.214154,114.539161 172.054038,113.446258 C171.893922,112.353355 170.87815,111.597182 169.785247,111.757298 C164.414401,112.544156 159.132052,113.375227 153.938195,114.250522 C152.848984,114.434081 152.114809,115.465865 152.298368,116.555076 C152.481927,117.644286 153.513711,118.378462 154.602922,118.194903 Z M186.197215,113.556795 C191.401637,112.898671 196.684977,112.279638 202.047231,111.6997 C203.145397,111.580931 203.939355,110.594411 203.820586,109.496245 C203.701818,108.39808 202.715297,107.604122 201.617132,107.72289 C196.231108,108.305399 190.923863,108.927233 185.695392,109.588398 C184.59955,109.726973 183.823531,110.727666 183.962105,111.823508 C184.10068,112.919351 185.101373,113.69537 186.197215,113.556795 Z M217.940333,110.116393 C223.174241,109.63838 228.479174,109.195573 233.85513,108.787974 C234.956539,108.704467 235.78171,107.743903 235.698203,106.642495 C235.614695,105.541086 234.654131,104.715915 233.552723,104.799422 C228.156416,105.208563 222.831019,105.653079 217.576527,106.132972 C216.476536,106.233434 215.666257,107.206594 215.76672,108.306586 C215.867182,109.406577 216.840342,110.216856 217.940333,110.116393 Z M249.794014,107.695447 C255.047479,107.372603 260.365383,107.081718 265.747723,106.822793 C266.851017,106.769717 267.702387,105.832295 267.649311,104.729001 C267.596236,103.625707 266.658813,102.774337 265.55552,102.827413 C260.15556,103.087186 254.819943,103.37904 249.548663,103.702979 C248.446174,103.77073 247.607353,104.719399 247.675105,105.821888 C247.742857,106.924378 248.691525,107.763199 249.794014,107.695447 Z M281.734526,106.154455 C286.999805,105.966754 292.323943,105.808256 297.706938,105.678962 C298.811189,105.652439 299.68486,104.735766 299.658338,103.631515 C299.631815,102.527264 298.715141,101.653593 297.61089,101.680115 C292.212491,101.809779 286.872868,101.968738 281.592022,102.156994 C280.488153,102.196346 279.625192,103.123109 279.664544,104.226977 C279.703895,105.330845 280.630658,106.193806 281.734526,106.154455 Z M313.636701,105.383849 C318.908466,105.314538 324.234334,105.272079 329.614306,105.256484 C330.718871,105.253272 331.611701,104.355248 331.608506,103.250683 C331.605293,102.146119 330.70727,101.253289 329.602705,101.256484 C324.209139,101.272136 318.86961,101.314703 313.584115,101.384194 C312.479641,101.398716 311.59606,102.305841 311.610405,103.410315 C311.625102,104.514789 312.532227,105.39837 313.636701,105.383849 Z M345.59946,105.288056 C350.876012,105.323711 356.202604,105.38421 361.579235,105.469552 C362.683666,105.487082 363.593195,104.605976 363.610725,103.501545 C363.628255,102.397115 362.747149,101.487586 361.642718,101.470056 C356.253993,101.384522 350.91525,101.323885 345.626489,101.288147 C344.521945,101.280684 343.620484,102.170043 343.612973,103.274587 C343.605556,104.379132 344.494916,105.280592 345.59946,105.288056 Z M377.570215,105.793006 C382.849716,105.922373 388.17574,106.074842 393.548287,106.250414 C394.652267,106.286491 395.576467,105.420785 395.612544,104.316805 C395.648622,103.212825 394.782915,102.288625 393.678935,102.252548 C388.295549,102.076622 382.958638,101.923841 377.668201,101.794206 C376.563962,101.767148 375.646866,102.640375 375.619808,103.744613 C375.59275,104.848851 376.465977,105.765948 377.570215,105.793006 Z M409.517065,106.834754 L410.917864,106.891867 C415.820583,107.093383 420.684051,107.269473 425.508269,107.420137 C426.612301,107.454617 427.535246,106.587574 427.569726,105.483543 C427.604205,104.379512 426.737162,103.456566 425.633131,103.422087 C422.024863,103.309398 418.394485,103.182442 414.741995,103.04122 L409.678695,102.838021 C408.575028,102.793388 407.644146,103.651905 407.599513,104.755573 C407.554881,105.85924 408.413398,106.790121 409.517065,106.834754 Z M441.532041,107.829931 C446.926654,107.936813 452.270361,108.010711 457.563164,108.051624 C458.6677,108.060162 459.570026,107.17168 459.578625,106.067143 C459.587101,104.962607 458.698619,104.060282 457.594083,104.051744 C452.317465,104.010956 446.989862,103.937281 441.611277,103.830716 C440.506924,103.808836 439.593932,104.686353 439.572051,105.790706 C439.550171,106.895059 440.427688,107.808051 441.532041,107.829931 Z M473.592759,108.073927 C478.992788,108.046482 484.3377,107.98334 489.627498,107.884471 C490.731875,107.86383 491.610416,106.951823 491.589774,105.847446 C491.569133,104.743069 490.657126,103.864528 489.552749,103.88517 C484.28119,103.983697 478.954423,104.046625 473.57245,104.073952 C472.467894,104.07956 471.577022,104.979526 471.582604,106.084081 C471.588238,107.188636 472.488204,108.079509 473.592759,108.073927 Z M505.648304,107.470222 C511.051624,107.290944 516.394927,107.07275 521.678217,106.815638 C522.781481,106.761948 523.632328,105.824051 523.578638,104.720787 C523.524947,103.617523 522.58705,102.766676 521.483786,102.820366 C516.2212,103.076471 510.89849,103.293824 505.51566,103.472422 C504.411698,103.509051 503.546454,104.433682 503.583082,105.537644 C503.619711,106.641606 504.544342,107.506851 505.648304,107.470222 Z M537.661154,105.907179 C543.055252,105.555443 548.383807,105.161187 553.646823,104.724407 C554.747608,104.633052 555.565913,103.666632 555.474559,102.565847 C555.383204,101.465061 554.416784,100.646756 553.315998,100.738111 C548.076621,101.172929 542.77158,101.565446 537.400876,101.915656 C536.298648,101.98753 535.46338,102.939328 535.535254,104.041556 C535.607127,105.143785 536.558925,105.979053 537.661154,105.907179 Z M569.621664,103.247515 C575.006272,102.697425 580.31866,102.100454 585.558831,101.456598 C586.655156,101.321893 587.434704,100.323946 587.299999,99.2276213 C587.165294,98.1312963 586.167347,97.3517491 585.071022,97.4864539 C579.858085,98.1269641 574.57279,98.7208902 569.21514,99.2682266 C568.11629,99.3804849 567.316499,100.362282 567.428758,101.461133 C567.541016,102.559983 568.522813,103.359774 569.621664,103.247515 Z M601.475585,99.3244722 C606.840327,98.5446345 612.124934,97.7127402 617.329409,96.8287812 C618.418383,96.6438234 619.151233,95.6110976 618.966275,94.5221236 C618.781317,93.4331496 617.748592,92.7002997 616.659618,92.8852575 C611.486756,93.7638471 606.233608,94.5907891 600.900179,95.3660751 C599.807098,95.5249693 599.049789,96.5398958 599.208684,97.6329769 C599.367578,98.7260581 600.382504,99.4833663 601.475585,99.3244722 Z M633.119803,93.9387918 C638.44434,92.8918326 643.679473,91.7867434 648.825204,90.623512 C649.902588,90.3799611 650.578544,89.3091317 650.334993,88.2317475 C650.091442,87.1543632 649.020612,86.4784077 647.943228,86.7219586 C642.834395,87.876849 637.636006,88.974182 632.348064,90.0139454 C631.264247,90.2270553 630.5584,91.2784218 630.77151,92.3622382 C630.98462,93.4460545 632.035986,94.1519016 633.119803,93.9387918 Z M664.445227,86.8429655 C669.709473,85.4816289 674.873117,84.0548144 679.93616,82.5625042 C680.995666,82.2502195 681.601408,81.1381638 681.289123,80.0786582 C680.976839,79.0191527 679.864783,78.4134105 678.805277,78.7256952 C673.785498,80.2052535 668.664995,81.6201473 663.443769,82.9703589 C662.374378,83.2469039 661.73165,84.3380004 662.008195,85.4073912 C662.28474,86.4767819 663.375836,87.1195105 664.445227,86.8429655 Z M695.268916,77.7400674 C700.4287,76.0108326 705.47493,74.2076071 710.407602,72.3303664 C711.439939,71.9374871 711.958322,70.782121 711.565443,69.749784 C711.172564,68.7174471 710.017197,68.1990642 708.98486,68.5919436 C704.10277,70.449934 699.107102,72.2350915 693.99785,73.9473916 C692.950532,74.2983869 692.38605,75.4319442 692.737045,76.4792627 C693.088041,77.5265812 694.221598,78.0910627 695.268916,77.7400674 Z M725.325537,66.2779367 C730.328002,64.1162991 735.20175,61.8707022 739.94676,59.5411155 C740.938278,59.0543246 741.347441,57.8559183 740.86065,56.8644 C740.373859,55.8728818 739.175452,55.4637195 738.183934,55.9505104 C733.497433,58.2513717 728.682421,60.4699062 723.738876,62.6060833 C722.724922,63.0442276 722.258135,64.2213861 722.69628,65.2353404 C723.134424,66.2492947 724.311582,66.716081 725.325537,66.2779367 Z M754.203383,52.0729431 C758.962016,49.4144215 763.575365,46.6610837 768.043386,43.8129011 C768.974806,43.2191584 769.248548,41.9827697 768.654805,41.0513496 C768.061062,40.1199295 766.824674,39.8461879 765.893253,40.4399306 C761.490957,43.2462165 756.944054,45.9598978 752.252497,48.5809459 C751.288208,49.1196681 750.943219,50.338099 751.481941,51.3023874 C752.020663,52.2666758 753.239094,52.6116653 754.203383,52.0729431 Z M781.36571,34.7256484 C785.762969,31.5158197 789.998454,28.2004805 794.072084,24.7796249 C794.917959,24.0692955 795.027841,22.8077419 794.317512,21.961866 C793.607183,21.1159902 792.345629,21.0061081 791.499753,21.7164375 C787.495938,25.0786658 783.331829,28.3381355 779.007346,31.4948409 C778.115183,32.1460852 777.91988,33.397264 778.571124,34.2894269 C779.222369,35.1815897 780.473548,35.3768927 781.36571,34.7256484 Z M806.056005,13.9592599 C807.192581,12.854907 808.314213,11.7408305 809.420901,10.6170312 C810.195934,9.83001376 810.18622,8.56372106 809.399202,7.78868732 C808.612185,7.01365358 807.345892,7.02336831 806.570858,7.81038577 C805.484825,8.91321209 804.384051,10.0065696 803.268536,11.0904593 C802.476339,11.8601976 802.458132,13.1263967 803.227871,13.9185941 C803.997609,14.7107915 805.263808,14.7289982 806.056005,13.9592599 Z" id="shape" fill-opacity="0.24" fill="#E0E0FF" fill-rule="nonzero"></path>
                </g>
            </g>
        </g>
    </g>
</svg>